<?xml version="1.0" encoding="UTF-8" standalone="no"?>
<svg
   xmlns:dc="http://purl.org/dc/elements/1.1/"
   xmlns:cc="http://creativecommons.org/ns#"
   xmlns:rdf="http://www.w3.org/1999/02/22-rdf-syntax-ns#"
   xmlns:svg="http://www.w3.org/2000/svg"
   xmlns="http://www.w3.org/2000/svg"
   id="svg1038"
   version="1.1"
   viewBox="0 0 16 16"
   height="16"
   width="16">
  <metadata
     id="metadata1044">
    <rdf:RDF>
      <cc:Work
         rdf:about="">
        <dc:format>image/svg+xml</dc:format>
        <dc:type
           rdf:resource="http://purl.org/dc/dcmitype/StillImage" />
        <dc:title></dc:title>
        <cc:license
           rdf:resource="http://mozilla.org/MPL/2.0/" />
      </cc:Work>
    </rdf:RDF>
  </metadata>
  <defs
     id="defs1042" />
  <path
     style="fill:#bebebe;fill-opacity:1"
     id="path1036"
     d="M15,1a1,1,0,0,0-1,1V4.418A6.995,6.995,0,1,0,8,15a6.954,6.954,0,0,0,4.95-2.05,1,1,0,0,0-1.414-1.414A5.019,5.019,0,1,1,12.549,6H10a1,1,0,0,0,0,2h5a1,1,0,0,0,1-1V2A1,1,0,0,0,15,1Z"
     fill-opacity="context-fill-opacity"
     fill="context-fill" />
</svg>
